<?xml version="1.0" encoding="UTF-8"?>
<svg width="186" height="48" viewBox="0 0 186 48" fill="none" xmlns="http://www.w3.org/2000/svg">
  <defs>
    <style>
      .cls-1 {
        fill: #000;
      }

      .cls-1, .cls-2 {
        stroke-width: 0px;
      }

      .cls-2 {
        fill: #552583;
      }
    </style>
  </defs>
  <g id="Camada_2-2" data-name="Camada 2">
    <g id="logo_horizontal" data-name="logo horizontal">
      <polygon class="cls-2" points="141.79 88.92 149.68 81.02 150.32 80.39 150.77 79.93 159.75 70.95 162.39 68.31 168.74 61.97 162.39 55.62 159.75 52.98 150.77 44 150.32 43.55 149.68 42.91 141.79 35.03 141.16 34.39 123.19 34.39 123.82 35.03 124.92 36.12 131.71 42.91 132.8 44.01 137.62 48.82 150.77 61.97 122.09 90.65 140.06 90.65 141.79 88.92"/>
      <polygon class="cls-2" points="43.82 87.81 37.03 81.02 35.92 79.93 31.12 75.12 26.95 70.95 24.32 68.31 18.42 62.42 17.97 61.97 18.42 61.51 24.32 55.62 26.95 52.98 31.12 48.82 35.92 44.01 37.03 42.91 43.82 36.12 44.91 35.03 45.54 34.39 27.57 34.39 0 61.97 17.97 79.93 18.42 79.48 18.42 80.39 19.06 81.02 26.94 88.92 28.67 90.65 46.64 90.65 44.91 88.92 43.82 87.81"/>
      <polygon class="cls-2" points="33.19 111.73 87.53 43.98 67.7 43.98 125.23 0 94.01 50.66 126.41 50.66 33.19 111.73"/>
      <path class="cls-2" d="M131.9,1.04h48.11s-16.36,26.97-34.69,26.97h-30.5L131.9,1.04Z"/>
      <g>
        <path class="cls-1" d="M279.31,83.07h-2.3c-.09-.49-.25-.92-.49-1.3-.24-.37-.54-.69-.88-.95-.35-.26-.74-.46-1.17-.59-.43-.13-.89-.2-1.37-.2-.87,0-1.65.22-2.33.66s-1.23,1.08-1.62,1.92c-.4.84-.59,1.88-.59,3.1s.2,2.27.59,3.11c.4.84.94,1.48,1.63,1.92.69.43,1.46.65,2.32.65.48,0,.93-.06,1.36-.2.43-.13.82-.32,1.17-.58.35-.26.65-.57.89-.94s.41-.8.5-1.28h2.3c-.12.75-.36,1.43-.71,2.05s-.8,1.16-1.35,1.61c-.55.45-1.17.8-1.88,1.04-.7.25-1.47.37-2.3.37-1.31,0-2.47-.31-3.49-.93-1.02-.62-1.83-1.51-2.42-2.67s-.88-2.54-.88-4.15.29-3,.88-4.15c.59-1.16,1.4-2.05,2.42-2.67,1.02-.62,2.18-.93,3.49-.93.8,0,1.55.11,2.24.34s1.32.56,1.88,1c.55.44,1.01.97,1.38,1.61.36.63.61,1.35.74,2.16Z"/>
        <path class="cls-1" d="M287.94,93.26v-15.1h5.38c1.17,0,2.14.2,2.92.6.77.4,1.35.96,1.74,1.67.38.71.57,1.53.57,2.46s-.19,1.74-.58,2.44c-.39.7-.97,1.25-1.74,1.63-.77.39-1.75.58-2.92.58h-4.08v-1.96h3.87c.74,0,1.34-.11,1.8-.32.46-.21.8-.52,1.02-.92.22-.4.32-.89.32-1.45s-.11-1.06-.33-1.48c-.22-.42-.56-.74-1.02-.96-.46-.22-1.07-.33-1.83-.33h-2.86v13.14h-2.28ZM295.39,86.45l3.73,6.81h-2.6l-3.66-6.81h2.52Z"/>
        <path class="cls-1" d="M307.22,93.26v-15.1h9.47v1.96h-7.19v4.6h6.69v1.95h-6.69v4.62h7.28v1.96h-9.55Z"/>
        <path class="cls-1" d="M326.91,93.26h-2.42l5.43-15.1h2.63l5.43,15.1h-2.42l-4.27-12.36h-.12l-4.28,12.36ZM327.32,87.35h7.84v1.92h-7.84v-1.92Z"/>
        <path class="cls-1" d="M343.52,80.12v-1.96h11.69v1.96h-4.71v13.14h-2.27v-13.14h-4.71Z"/>
        <path class="cls-1" d="M365.95,78.16v15.1h-2.28v-15.1h2.28Z"/>
        <path class="cls-1" d="M376.48,78.16l4.2,12.3h.17l4.2-12.3h2.46l-5.43,15.1h-2.63l-5.43-15.1h2.46Z"/>
        <path class="cls-1" d="M395.59,93.26v-15.1h9.46v1.96h-7.19v4.6h6.69v1.95h-6.69v4.62h7.28v1.96h-9.55Z"/>
        <path class="cls-1" d="M435.11,78.16h2.29v9.93c0,1.06-.25,1.99-.74,2.8-.5.81-1.19,1.45-2.09,1.92-.9.46-1.95.7-3.16.7s-2.26-.23-3.16-.7c-.9-.46-1.6-1.1-2.09-1.92-.5-.81-.74-1.75-.74-2.8v-9.93h2.28v9.75c0,.68.15,1.29.46,1.82.3.53.73.95,1.29,1.25.56.3,1.21.45,1.98.45s1.43-.15,1.99-.45c.56-.3.99-.72,1.28-1.25s.45-1.14.45-1.82v-9.75Z"/>
        <path class="cls-1" d="M448.19,78.16l3.61,5.91h.12l3.61-5.91h2.64l-4.7,7.55,4.73,7.55h-2.65l-3.63-5.82h-.12l-3.63,5.82h-2.65l4.81-7.55-4.79-7.55h2.64Z"/>
        <path class="cls-1" d="M482.62,93.26h-4.89v-15.1h5.04c1.48,0,2.75.3,3.81.9,1.06.6,1.88,1.46,2.45,2.59.57,1.12.85,2.47.85,4.04s-.29,2.92-.86,4.05-1.4,2-2.48,2.61c-1.08.61-2.39.91-3.92.91ZM480.01,91.27h2.48c1.15,0,2.11-.22,2.87-.65.76-.44,1.33-1.07,1.71-1.89.38-.83.57-1.84.57-3.03s-.19-2.19-.56-3.02c-.38-.83-.93-1.45-1.68-1.88s-1.66-.64-2.77-.64h-2.62v11.12Z"/>
        <path class="cls-1" d="M498.61,93.26v-15.1h9.47v1.96h-7.19v4.6h6.7v1.95h-6.7v4.62h7.28v1.96h-9.55Z"/>
        <path class="cls-1" d="M525.25,82.12c-.08-.7-.4-1.24-.97-1.62s-1.29-.58-2.15-.58c-.62,0-1.15.1-1.61.29-.45.19-.8.46-1.05.8s-.37.72-.37,1.15c0,.36.09.67.26.93.17.26.39.48.67.65.28.17.58.32.9.44.32.12.63.21.92.28l1.47.38c.48.12.97.28,1.48.48.51.2.98.47,1.41.79.43.33.78.74,1.05,1.22s.4,1.07.4,1.75c0,.86-.22,1.61-.66,2.28s-1.08,1.19-1.91,1.57c-.83.38-1.84.57-3.02.57s-2.11-.18-2.94-.54c-.82-.36-1.47-.87-1.94-1.53s-.73-1.45-.78-2.36h2.29c.04.55.22,1,.54,1.36s.71.63,1.2.8c.49.17,1.03.26,1.61.26.64,0,1.22-.1,1.72-.31.5-.21.9-.49,1.19-.86.29-.37.44-.79.44-1.29,0-.45-.13-.81-.38-1.1-.25-.29-.59-.52-1.02-.71s-.92-.35-1.46-.49l-1.78-.49c-1.21-.33-2.17-.81-2.87-1.45-.71-.64-1.06-1.48-1.06-2.54,0-.87.24-1.63.71-2.28.47-.65,1.11-1.15,1.92-1.52.8-.36,1.71-.54,2.73-.54s1.93.18,2.71.54c.79.36,1.4.85,1.86,1.48.45.63.69,1.35.71,2.16h-2.2Z"/>
        <path class="cls-1" d="M538.55,78.16v15.1h-2.28v-15.1h2.28Z"/>
        <path class="cls-1" d="M557.99,82.93c-.14-.45-.33-.85-.57-1.21s-.52-.66-.85-.91c-.33-.25-.7-.45-1.12-.58-.42-.13-.88-.2-1.38-.2-.85,0-1.62.22-2.3.66s-1.22,1.08-1.62,1.92c-.4.84-.59,1.87-.59,3.09s.2,2.26.6,3.1c.4.85.95,1.49,1.64,1.92.69.44,1.48.66,2.37.66.82,0,1.54-.17,2.15-.5.61-.33,1.09-.81,1.42-1.42s.51-1.33.51-2.16l.59.11h-4.32v-1.88h5.93v1.72c0,1.27-.27,2.37-.81,3.3-.54.93-1.28,1.65-2.23,2.16-.95.51-2.03.76-3.25.76-1.37,0-2.56-.31-3.59-.94-1.03-.63-1.83-1.52-2.41-2.68-.58-1.16-.86-2.53-.86-4.12,0-1.2.17-2.29.5-3.24.33-.96.8-1.77,1.41-2.44.61-.67,1.32-1.18,2.15-1.54.82-.36,1.72-.53,2.7-.53.82,0,1.58.12,2.28.36.71.24,1.33.58,1.89,1.02s1.01.97,1.38,1.57c.36.61.61,1.28.74,2.02h-2.34Z"/>
        <path class="cls-1" d="M581.4,78.16v15.1h-2.09l-7.67-11.07h-.14v11.07h-2.28v-15.1h2.11l7.68,11.09h.14v-11.09h2.26Z"/>
      </g>
      <g>
        <path class="cls-2" d="M209.97,61.08V14.51h32.74v10.19h-20.1v8h18.1v10.19h-18.1v18.19h-12.64Z"/>
        <path class="cls-2" d="M247.35,61.08V14.51h33.56v10.19h-20.92v8h19.19v10.19h-19.19v8h20.83v10.19h-33.47Z"/>
        <path class="cls-2" d="M287.19,61.08V14.51h12.64v36.38h18.83v10.19h-31.47Z"/>
        <path class="cls-2" d="M336.4,14.51v46.57h-12.64V14.51h12.64Z"/>
        <path class="cls-2" d="M342.4,61.08V14.51h20.1c3.46,0,6.48.68,9.07,2.05s4.61,3.28,6.05,5.75c1.44,2.47,2.16,5.36,2.16,8.66s-.74,6.22-2.22,8.66c-1.48,2.44-3.55,4.32-6.21,5.64s-5.76,1.98-9.31,1.98h-12.01v-9.82h9.46c1.49,0,2.75-.26,3.81-.78s1.86-1.27,2.43-2.24.85-2.11.85-3.43-.29-2.48-.85-3.42-1.38-1.67-2.43-2.18c-1.05-.51-2.32-.76-3.81-.76h-4.46v36.47h-12.64Z"/>
        <path class="cls-2" d="M384.42,61.08V14.51h33.56v10.19h-20.92v8h19.19v10.19h-19.19v8h20.83v10.19h-33.47Z"/>
        <path class="cls-2" d="M477.29,14.51v46.57h-10.55l-16.83-24.47h-.27v24.47h-12.64V14.51h10.73l16.55,24.38h.36V14.51h12.64Z"/>
        <path class="cls-2" d="M483.29,61.08V14.51h33.56v10.19h-20.92v8h19.19v10.19h-19.19v8h20.83v10.19h-33.47Z"/>
        <path class="cls-2" d="M563.42,14.51v46.57h-10.55l-16.83-24.47h-.27v24.47h-12.64V14.51h10.73l16.55,24.38h.36V14.51h12.64Z"/>
        <path class="cls-2" d="M569.43,61.08V14.51h33.56v10.19h-20.92v8h19.19v10.19h-19.19v8h20.83v10.19h-33.47Z"/>
        <path class="cls-2" d="M636.82,14.51h12.64v29.83c0,3.55-.84,6.61-2.54,9.2s-4.04,4.58-7.06,5.98c-3.02,1.4-6.52,2.1-10.51,2.1s-7.53-.7-10.55-2.1c-3.02-1.4-5.36-3.4-7.04-5.98-1.68-2.58-2.51-5.65-2.51-9.2V14.51h12.64v28.74c0,1.44.32,2.73.96,3.85s1.52,2.01,2.65,2.65c1.13.64,2.41.96,3.85.96s2.74-.32,3.87-.96,2-1.52,2.64-2.65.96-2.41.96-3.85V14.51Z"/>
      </g>
    </g>
  </g>
</svg>